<svg width="38" height="38" viewBox="0 0 38 38" fill="none" xmlns="http://www.w3.org/2000/svg">
<g id="Files">
<path id="Vector" d="M31.7152 9.84734L25.7777 3.90984C25.6673 3.7996 25.5363 3.71219 25.3921 3.65259C25.248 3.59299 25.0935 3.56238 24.9375 3.5625H13.0625C12.4326 3.5625 11.8285 3.81272 11.3831 4.25812C10.9377 4.70352 10.6875 5.30761 10.6875 5.9375V8.3125H8.3125C7.68261 8.3125 7.07852 8.56272 6.63312 9.00812C6.18772 9.45352 5.9375 10.0576 5.9375 10.6875V32.0625C5.9375 32.6924 6.18772 33.2965 6.63312 33.7419C7.07852 34.1873 7.68261 34.4375 8.3125 34.4375H24.9375C25.5674 34.4375 26.1715 34.1873 26.6169 33.7419C27.0623 33.2965 27.3125 32.6924 27.3125 32.0625V29.6875H29.6875C30.3174 29.6875 30.9215 29.4373 31.3669 28.9919C31.8123 28.5465 32.0625 27.9424 32.0625 27.3125V10.6875C32.0626 10.5315 32.032 10.377 31.9724 10.2329C31.9128 10.0887 31.8254 9.95771 31.7152 9.84734ZM24.9375 32.0625H8.3125V10.6875H19.6962L24.9375 15.9288V28.4762C24.9375 28.4852 24.9375 28.4926 24.9375 28.5C24.9375 28.5074 24.9375 28.5148 24.9375 28.5238V32.0625ZM29.6875 27.3125H27.3125V15.4375C27.3126 15.2815 27.282 15.127 27.2224 14.9829C27.1628 14.8387 27.0754 14.7077 26.9652 14.5973L21.0277 8.65984C20.9173 8.5496 20.7863 8.46219 20.6421 8.40259C20.498 8.34299 20.3435 8.31238 20.1875 8.3125H13.0625V5.9375H24.4462L29.6875 11.1788V27.3125ZM21.375 22.5625C21.375 22.8774 21.2499 23.1795 21.0272 23.4022C20.8045 23.6249 20.5024 23.75 20.1875 23.75H13.0625C12.7476 23.75 12.4455 23.6249 12.2228 23.4022C12.0001 23.1795 11.875 22.8774 11.875 22.5625C11.875 22.2476 12.0001 21.9455 12.2228 21.7228C12.4455 21.5001 12.7476 21.375 13.0625 21.375H20.1875C20.5024 21.375 20.8045 21.5001 21.0272 21.7228C21.2499 21.9455 21.375 22.2476 21.375 22.5625ZM21.375 27.3125C21.375 27.6274 21.2499 27.9295 21.0272 28.1522C20.8045 28.3749 20.5024 28.5 20.1875 28.5H13.0625C12.7476 28.5 12.4455 28.3749 12.2228 28.1522C12.0001 27.9295 11.875 27.6274 11.875 27.3125C11.875 26.9976 12.0001 26.6955 12.2228 26.4728C12.4455 26.2501 12.7476 26.125 13.0625 26.125H20.1875C20.5024 26.125 20.8045 26.2501 21.0272 26.4728C21.2499 26.6955 21.375 26.9976 21.375 27.3125Z" fill="black"/>
</g>
</svg>
