<svg width="71" height="70" viewBox="0 0 71 70" fill="none" xmlns="http://www.w3.org/2000/svg">
<g id="clarity:employee-group-solid">
<path id="Vector" d="M35.4977 31.0727C40.6094 31.0727 44.7533 26.9811 44.7533 21.9338C44.7533 16.8865 40.6094 12.7949 35.4977 12.7949C30.386 12.7949 26.2422 16.8865 26.2422 21.9338C26.2422 26.9811 30.386 31.0727 35.4977 31.0727Z" fill="white"/>
<path id="Vector_2" d="M21.4629 22.8476H22.3962V22.0115C22.4019 19.5802 23.0878 17.1989 24.3764 15.1372C25.665 13.0754 27.5049 11.4154 29.6879 10.3449C29.0416 8.8565 28.0043 7.57097 26.6861 6.62481C25.3679 5.67865 23.8181 5.10718 22.2012 4.9711C20.5843 4.83503 18.9607 5.13942 17.503 5.85196C16.0452 6.5645 14.8076 7.65857 13.9217 9.01797C13.0357 10.3774 12.5345 11.9514 12.4713 13.5727C12.4081 15.1941 12.7852 16.8023 13.5625 18.2266C14.3399 19.6509 15.4885 20.838 16.8864 21.6619C18.2843 22.4858 19.8792 22.9157 21.5018 22.906L21.4629 22.8476ZM48.6462 21.9337V22.7698H49.5796C51.1805 22.7538 52.7475 22.3064 54.1157 21.4748C55.4838 20.6433 56.6025 19.4582 57.3539 18.0445C58.1054 16.6307 58.4618 15.0405 58.3857 13.4413C58.3095 11.8421 57.8037 10.2929 56.9213 8.95693C56.039 7.62095 54.8128 6.54754 53.3719 5.84968C51.9309 5.15182 50.3285 4.85533 48.7332 4.99141C47.138 5.1275 45.6089 5.69112 44.307 6.62296C43.005 7.5548 41.9784 8.82039 41.3351 10.2865C43.5188 11.3528 45.3607 13.0087 46.6526 15.0669C47.9446 17.1251 48.6351 19.5037 48.6462 21.9337ZM43.8434 31.9865C47.7092 32.753 51.4471 34.0623 54.9462 35.8754C55.4393 36.1459 55.8857 36.4938 56.2684 36.906H66.6129V30.256C66.6148 30.0009 66.5469 29.7502 66.4167 29.5309C66.2865 29.3115 66.0988 29.132 65.874 29.0115C60.8343 26.3755 55.2281 25.0073 49.5407 25.0254H48.2573C47.5835 27.7646 46.0336 30.2088 43.8434 31.9865ZM13.199 40.6782C13.1954 39.6989 13.4599 38.7373 13.9637 37.8976C14.4676 37.0579 15.1916 36.372 16.0573 35.9143C19.5565 34.1012 23.2944 32.7919 27.1601 32.0254C24.9805 30.2628 23.4317 27.8406 22.7462 25.1226H21.4629C15.7754 25.1045 10.1693 26.4727 5.12955 29.1087C4.90471 29.2292 4.71705 29.4088 4.58683 29.6281C4.45661 29.8474 4.38878 30.0981 4.39066 30.3532V42.7782H13.199V40.6782ZM42.2295 51.8976H53.8184V54.6199H42.2295V51.8976Z" fill="white"/>
<path id="Vector_3" d="M64.2971 41.3392H50.9388V39.3947C50.9388 38.879 50.7339 38.3844 50.3692 38.0198C50.0046 37.6551 49.51 37.4503 48.9943 37.4503C48.4786 37.4503 47.984 37.6551 47.6194 38.0198C47.2547 38.3844 47.0499 38.879 47.0499 39.3947V41.3392H43.2776V35.8364C40.7197 35.297 38.114 35.0168 35.4999 35.0003C29.363 34.9771 23.3141 36.4593 17.8832 39.3169C17.6413 39.4424 17.4389 39.6323 17.2982 39.8657C17.1575 40.099 17.084 40.3667 17.086 40.6392V51.5475H30.911V63.3892C30.911 63.9049 31.1158 64.3994 31.4805 64.7641C31.8451 65.1287 32.3397 65.3336 32.8554 65.3336H64.2971C64.8128 65.3336 65.3074 65.1287 65.672 64.7641C66.0367 64.3994 66.2415 63.9049 66.2415 63.3892V43.2836C66.2415 42.7679 66.0367 42.2733 65.672 41.9087C65.3074 41.544 64.8128 41.3392 64.2971 41.3392ZM62.3526 61.4836H34.7999V45.228H47.0499V46.9975C47.0499 47.5132 47.2547 48.0078 47.6194 48.3724C47.984 48.7371 48.4786 48.9419 48.9943 48.9419C49.51 48.9419 50.0046 48.7371 50.3692 48.3724C50.7339 48.0078 50.9388 47.5132 50.9388 46.9975V45.228H62.3526V61.4836Z" fill="white"/>
</g>
</svg>
