<svg width="70" height="70" viewBox="0 0 70 70" fill="none" xmlns="http://www.w3.org/2000/svg">
<g id="mdi:company">
<path id="Vector" d="M52.5026 43.75H46.6693V49.5833H52.5026M52.5026 32.0833H46.6693V37.9167H52.5026M58.3359 55.4167H35.0026V49.5833H40.8359V43.75H35.0026V37.9167H40.8359V32.0833H35.0026V26.25H58.3359M29.1693 20.4167H23.3359V14.5833H29.1693M29.1693 32.0833H23.3359V26.25H29.1693M29.1693 43.75H23.3359V37.9167H29.1693M29.1693 55.4167H23.3359V49.5833H29.1693M17.5026 20.4167H11.6693V14.5833H17.5026M17.5026 32.0833H11.6693V26.25H17.5026M17.5026 43.75H11.6693V37.9167H17.5026M17.5026 55.4167H11.6693V49.5833H17.5026M35.0026 20.4167V8.75H5.83594V61.25H64.1693V20.4167H35.0026Z" fill="white"/>
</g>
</svg>
