<svg width="70" height="70" viewBox="0 0 70 70" fill="none" xmlns="http://www.w3.org/2000/svg">
<g id="raphael:employee">
<path id="Vector" d="M62.3935 52.0908C61.2604 50.9752 47.5295 45.6639 45.0379 44.662C42.5595 43.6777 41.5707 40.9498 41.5707 40.9498C41.5707 40.9498 40.4551 41.5667 40.4551 39.8342C40.4551 38.0995 41.5707 40.9498 42.6864 34.2605C42.6864 34.2605 45.7817 33.392 45.167 26.2105H44.4232C44.4232 26.2105 46.2826 18.5323 44.4232 15.9336C42.5573 13.3348 41.8267 11.6023 37.7295 10.3598C33.6388 9.11953 35.1263 9.36672 32.1557 9.4936C29.1807 9.61828 26.7045 11.2283 26.7045 12.0923C26.7045 12.0923 24.8451 12.217 24.1057 12.9608C23.362 13.7045 22.1238 17.1695 22.1238 18.0358C22.1238 18.902 22.7429 24.7295 23.362 25.9633L22.6248 26.2039C22.0057 33.3877 25.101 34.2583 25.101 34.2583C26.2167 40.9477 27.3323 38.0973 27.3323 39.832C27.3323 41.5645 26.2167 40.9477 26.2167 40.9477C26.2167 40.9477 25.2257 43.6733 22.7495 44.6598C20.2732 45.6508 6.52697 50.9752 5.40916 52.0886C4.29354 53.2261 4.41822 58.4236 4.41822 58.4236H63.3801C63.3801 58.4236 63.5179 53.2217 62.3892 52.0864L62.3935 52.0908Z" fill="white"/>
</g>
</svg>
