<svg width="35" height="23" viewBox="0 0 35 23" fill="none" xmlns="http://www.w3.org/2000/svg">
<g id="flag/GB" clip-path="url(#clip0_835_10070)">
<path id="Vector" d="M0.3125 0.126953H34.5403V22.9458H0.3125V0.126953Z" fill="white"/>
<path id="Vector_2" d="M19.5657 0.126953H15.2872V9.39695H0.3125V13.6754H15.2872V22.9454H19.5657V13.6754H34.5403V9.39695H19.5657V0.126953Z" fill="#D80027"/>
<g id="Group">
<path id="Vector_3" d="M26.6313 15.5039L34.5341 19.8944V15.5039H26.6313ZM21.1406 15.5039L34.5341 22.9447V20.8406L24.9281 15.5039H21.1406ZM30.9666 22.9447L21.1406 17.4854V22.9447H30.9666Z" fill="#0052B4"/>
</g>
<path id="Vector_4" d="M21.1484 15.5049L34.542 22.9457V20.8416L24.9359 15.5049H21.1484Z" fill="white"/>
<path id="Vector_5" d="M21.1484 15.5049L34.542 22.9457V20.8416L24.9359 15.5049H21.1484Z" fill="#D80027"/>
<g id="Group_2">
<path id="Vector_6" d="M6.35191 15.5039L0.3125 18.8592V15.5039H6.35191ZM13.706 16.4501V22.9448H2.01661L13.706 16.4501Z" fill="#0052B4"/>
</g>
<path id="Vector_7" d="M9.91856 15.5049L0.3125 20.8416V22.9457L13.706 15.5049H9.91856Z" fill="#D80027"/>
<g id="Group_3">
<path id="Vector_8" d="M8.21532 7.56679L0.3125 3.17627V7.56679H8.21532ZM13.706 7.56679L0.3125 0.125977V2.23005L9.91856 7.56679H13.706ZM3.88008 0.125977L13.706 5.58532V0.125977H3.88008Z" fill="#0052B4"/>
</g>
<path id="Vector_9" d="M13.706 7.56777L0.3125 0.126953V2.23103L9.91856 7.56777H13.706Z" fill="white"/>
<path id="Vector_10" d="M13.706 7.56777L0.3125 0.126953V2.23103L9.91856 7.56777H13.706Z" fill="#D80027"/>
<g id="Group_4">
<path id="Vector_11" d="M28.4947 7.56783L34.5341 4.21257V7.56783H28.4947ZM21.1406 6.62162V0.126953H32.83L21.1406 6.62162Z" fill="#0052B4"/>
</g>
<path id="Vector_12" d="M24.9359 7.56777L34.542 2.23103V0.126953L21.1484 7.56777H24.9359Z" fill="#D80027"/>
</g>
<defs>
<clipPath id="clip0_835_10070">
<rect width="34.2278" height="22.8185" fill="white" transform="translate(0.3125 0.126953)"/>
</clipPath>
</defs>
</svg>
