<svg width="35" height="24" viewBox="0 0 35 24" fill="none" xmlns="http://www.w3.org/2000/svg">
<g id="flag/HM" clip-path="url(#clip0_835_10122)">
<path id="Vector" d="M0 0.810547H34.2278V23.6294H0V0.810547Z" fill="#0052B4"/>
<g id="Group">
<path id="Vector_2" d="M14.9331 12.2199C14.9514 12.1996 14.9694 12.1792 14.9875 12.1587C14.9694 12.1793 14.951 12.1995 14.9327 12.2199H14.9331ZM12.6482 15.0228L13.3807 16.5546L15.0351 16.1723L14.2942 17.7001L15.6245 18.755L13.9682 19.1284L13.9728 20.8263L12.6482 19.764L11.3236 20.8263L11.3282 19.1284L9.67188 18.755L11.0022 17.7001L10.2613 16.1723L11.9156 16.5546L12.6482 15.0228ZM25.8753 16.9257L26.2247 17.6563L27.0138 17.4739L26.6604 18.2026L27.2949 18.7058L26.5049 18.8839L26.507 19.6937L25.8753 19.1871L25.2435 19.6937L25.2457 18.8839L24.4557 18.7058L25.0902 18.2026L24.7369 17.4739L25.5259 17.6563L25.8753 16.9257ZM22.6248 9.17499L22.9742 9.90567L23.7633 9.72324L23.4099 10.452L24.0444 10.9552L23.2544 11.1333L23.2565 11.9432L22.6248 11.4364L21.993 11.9432L21.9952 11.1333L21.2051 10.9552L21.8396 10.452L21.4864 9.72324L22.2753 9.90567L22.6248 9.17499ZM25.8753 4.74609L26.2247 5.47678L27.0138 5.29427L26.6604 6.02309L27.2949 6.52628L26.5049 6.70437L26.507 7.5142L25.8753 7.00747L25.2435 7.5142L25.2457 6.70437L24.4557 6.52628L25.0902 6.02309L24.7369 5.29427L25.5259 5.47678L25.8753 4.74609ZM28.7145 8.0678L29.064 8.79842L29.8529 8.61605L29.4997 9.34472L30.1342 9.84791L29.3441 10.026L29.3463 10.8358L28.7145 10.3292L28.0828 10.8358L28.0849 10.026L27.2949 9.84791L27.9294 9.34472L27.576 8.61605L28.3651 8.79842L28.7145 8.0678ZM26.6844 11.9432L26.9591 12.789H27.8485L27.129 13.3117L27.4039 14.1575L26.6844 13.6348L25.9647 14.1575L26.2396 13.3117L25.5201 12.789H26.4095L26.6844 11.9432Z" fill="white"/>
<path id="Vector_3" d="M17.1139 0.810547V2.85305L14.0945 4.53095H17.1139V8.49918H13.1628L17.1139 10.6942V12.2196H15.3303L10.4172 9.49032V12.2196H6.69676V8.97242L0.851953 12.2196H0V10.1771L3.01947 8.49918H0V4.53095H3.95111L0 2.33516V0.810547H1.78359L6.69676 3.53988V0.810547H10.4172V4.05771L16.262 0.810547H17.1139Z" fill="white"/>
</g>
<path id="Vector_4" d="M9.62658 0.810547H7.48734V5.44548H0V7.58472H7.48734V12.2198H9.62658V7.58472H17.1139V5.44548H9.62658V0.810547Z" fill="#D80027"/>
<path id="Vector_5" d="M10.4219 8.49902L17.1186 12.2194V11.1674L12.3156 8.49902H10.4219Z" fill="#0052B4"/>
<path id="Vector_6" d="M10.4219 8.49902L17.1186 12.2194V11.1674L12.3156 8.49902H10.4219Z" fill="white"/>
<g id="Group_2">
<path id="Vector_7" d="M10.4172 8.49902L17.1139 12.2194V11.1674L12.3109 8.49902H10.4172ZM4.803 8.49902L0 11.1674V12.2194L6.69676 8.49902H4.803Z" fill="#D80027"/>
</g>
<path id="Vector_8" d="M6.69676 4.53095L0 0.810547V1.86259L4.80306 4.53095H6.69676Z" fill="#0052B4"/>
<path id="Vector_9" d="M6.69676 4.53095L0 0.810547V1.86259L4.80306 4.53095H6.69676Z" fill="white"/>
<g id="Group_3">
<path id="Vector_10" d="M6.69676 4.52998L0 0.80957V1.86161L4.80306 4.52998H6.69676ZM12.3109 4.52998L17.1139 1.86161V0.80957L10.4172 4.52998H12.3109Z" fill="#D80027"/>
</g>
</g>
<defs>
<clipPath id="clip0_835_10122">
<rect width="34.2278" height="22.8185" fill="white" transform="translate(0 0.810547)"/>
</clipPath>
</defs>
</svg>
