<svg width="147" height="107" viewBox="0 0 147 107" fill="none" xmlns="http://www.w3.org/2000/svg">
<g id="logo">
<g id="Group 34289">
<path id="Vector" fill-rule="evenodd" clip-rule="evenodd" d="M16.6418 77.6396L17.5928 77.162C17.5676 75.9866 17.6471 74.6446 17.2104 73.9963C16.6811 74.1656 16.7022 74.4698 16.673 75.3452C16.6479 76.0994 16.6468 76.8826 16.6418 77.6396ZM75.2439 73.5214L74.5083 73.5489L74.4912 74.5289L85.0929 74.5702L85.0939 73.5421L84.2989 73.5297C84.0443 71.8615 83.6076 69.9689 83.2685 68.2869C83.0903 67.4032 82.9193 66.5457 82.7512 65.68C82.3225 63.4708 82.394 64.6325 82.5469 62.8487L76.997 62.8445C77.1368 64.5073 77.2335 63.4571 76.7967 65.6593C76.363 67.8464 75.5247 71.6674 75.2439 73.5214ZM58.4049 34.5179C58.6494 34.8193 58.5769 34.99 58.5749 35.5227C58.5196 35.5791 58.4008 35.6603 58.3404 35.7057C58.4562 36.1517 58.5639 35.6465 58.4844 36.6582C58.3415 38.482 57.6239 41.0407 56.8289 42.5162C56.7494 42.6635 56.676 42.7488 56.6216 42.9181C56.8159 43.4164 56.8078 42.8658 56.8038 44.0578C56.8018 44.4405 56.843 45.0736 56.7907 45.4012C56.684 45.4852 56.5602 45.4755 56.4516 45.4067C56.4385 45.2264 56.4747 44.9773 56.4083 44.8369L56.3892 45.8582C56.4214 46.0302 56.4173 45.938 56.5512 46.0509C56.4566 46.6813 55.9454 47.6131 55.732 48.0893C55.4462 48.7294 55.0145 49.346 54.614 49.686C54.783 50.1099 54.8233 49.6764 54.8213 50.56C54.8203 50.9317 54.8303 51.317 54.8213 51.6859C54.7166 51.8139 54.5677 51.8538 54.4117 51.9323C54.1581 52.0589 54.2276 52.0741 54.2165 52.4719C53.8773 52.4512 53.9478 52.5655 53.9729 53.0761L54.1903 53.1394C54.2718 53.8111 54.148 59.8453 54.2094 60.5266C54.2477 60.9492 54.3352 60.3821 54.3191 61.7145C54.3121 62.3009 54.3 62.8858 54.293 63.4708C54.2567 66.8045 54.2255 70.4396 54.14 73.7224L54.0655 79.7524C54.0635 80.2851 54.0283 80.0759 53.7365 80.2012L53.7274 88.5643C52.2249 88.673 50.7698 88.7638 49.374 88.8396C49.4806 86.819 49.2623 83.8707 49.2301 81.8873C49.1164 74.6473 49.1727 75.8572 41.6735 73.275C41.0606 73.0644 41.4863 72.9337 40.6933 73.0328C40.2757 73.0851 39.8933 73.1856 39.4897 73.1305C39.1999 72.0404 38.8799 70.9861 38.5619 69.9854C38.1473 68.6819 38.3032 67.4955 38.1614 65.9222C37.7709 65.3441 37.6411 65.757 37.159 64.839C36.6629 63.892 35.2088 60.9217 34.9854 60.0036H33.5362C33.1961 60.1977 28.26 60.8391 25.9283 61.6773C23.4185 62.5803 21.596 63.6814 19.5612 65.1445L19.5169 66.3916C19.1989 66.649 18.891 67.0509 18.5549 67.3138C18.0547 67.7047 17.9541 67.333 17.3342 67.0481C16.9035 68.4548 15.9907 69.3316 15.9082 71.2889L15.2611 88.8588C9.82085 88.5904 1.47831 88.2188 0.534365 88.5918C0.465934 88.6193 0.320014 88.8547 0.265672 88.757C0.211329 88.6579 0.0805071 88.8629 0 88.94C2.12237 88.4087 17.8655 91.2593 21.4139 91.7851C28.6404 92.8559 35.9202 93.7162 43.2897 94.4127C64.1188 96.3809 103.538 98.9535 123.239 84.2148C127.535 81.0009 130.925 76.8661 133.396 71.8215C143.911 43.1329 121.273 32.617 119.197 28.0212C118.738 27.0054 119.142 27.9056 118.505 26.7177L118.693 27.8725C118.746 28.1919 118.953 28.8264 119.04 29.1306C120.969 35.8544 125.197 44.6607 123.785 51.7671C122.014 60.6753 116.821 67.4583 109.745 72.624L109.45 68.002C110.527 66.6145 110.434 66.375 110.366 63.8755C110.199 57.6981 110.342 61.0318 110.623 59.1323C110.815 57.833 109.891 51.4203 109.852 49.5126C111.137 48.673 111.537 47.7879 111.692 45.3737C111.851 42.9126 112.734 44.4873 113.83 41.7647C113.948 41.4702 114.145 40.9499 114.21 40.6347C114.427 39.5914 114.206 39.996 114.213 39.356C114.222 38.5618 115.462 37.0698 113.782 36.2164L111.011 34.99L110.127 36.833C109.755 36.3926 109.099 36.003 108.893 35.085C108.684 34.1518 108.781 33.2199 108.578 32.233C107.971 29.2889 105.345 29.9427 105.74 27.3894C106.029 25.5161 105.388 22.6518 106.053 21.8025C106.43 21.6016 106.872 21.4295 107.264 21.2657L108.297 20.7014C108.318 20.6243 108.375 20.6381 108.41 20.634L105.508 20.349C105.416 19.4365 106.303 18.1041 106.567 17.0787C106.105 17.3884 106.529 17.0635 106.147 17.4544L105.299 18.3753C104.734 19.0745 104.931 19.2864 104.028 18.9823L103.381 14.6438C103.263 15.8564 103.287 17.8178 102.872 18.7386C102.139 19.5177 101.955 18.868 101.362 18.1963C100.937 17.7146 100.394 17.2025 100.082 16.8171C100.424 17.7132 101.483 19.5438 101.399 20.283C100.875 20.6298 99.7573 20.4991 99.0056 20.4179C98.8496 17.4104 98.1733 15.0787 98.0979 11.9804C98.0465 9.86487 98.5658 10.0163 97.5454 8.15949C97.2425 7.60755 97.1469 7.35429 97.3773 6.5188C97.6571 5.50576 97.6037 5.90629 98.4873 5.78242L98.4944 4.08805L97.3914 4.06052C97.321 3.39571 98.1411 1.78392 96.9848 0.382731L96.7091 1.62426L96.1576 0.00146484L95.897 1.21134C95.8487 1.58159 95.7712 1.87064 95.7289 2.20511C95.5337 3.76321 95.9956 2.73916 95.9151 4.08392L94.8504 4.07979C94.8504 5.89115 94.6864 5.62 95.7762 5.81408C95.6816 7.01844 95.3838 7.90898 95.5025 9.08582C95.5488 9.53866 96.3921 12.7719 96.375 15.2659C96.3488 19.2259 96.4666 17.7476 96.7705 20.1178C97.16 23.1583 96.7705 23.0234 96.368 24.4783C95.8728 26.2676 95.1493 29.1884 96.9355 29.3797C96.7957 30.7148 96.9788 31.1016 97.5102 31.754C97.3773 32.9598 97.0644 35.1896 97.6671 36.0209C98.3827 37.0092 97.8745 36.4201 98.2639 37.6974C98.756 39.3161 97.8473 38.7738 97.2596 42.5906C96.7625 45.8169 97.8755 45.1961 98.3142 45.5044C96.852 50.0452 97.9298 51.2028 98.0455 52.5641C98.1663 53.979 98.3343 59.548 98.1461 60.6767C96.8953 68.1561 98.6664 69.9702 97.7456 72.2771C97.3924 73.1622 97.1247 74.1298 96.844 75.1717L95.6273 75.1745L95.6685 80.1475C92.9947 81.2004 90.2293 82.1309 87.4166 82.9512L85.1745 76.6073C85.0768 76.1476 85.258 76.3954 85.0275 76.2302H74.4479C74.3885 77.1882 73.033 80.632 72.6365 81.7414L71.1994 85.7289C71.0203 86.1294 70.7164 86.3716 70.5282 86.6593C68.272 87.0172 66.042 87.3241 63.8582 87.5884C63.8652 85.3806 63.8481 81.5322 63.8481 80.8866C63.8491 79.9052 63.8884 80.3388 63.503 80.1323C63.4446 79.941 63.1789 66.0186 63.1226 63.4667C63.1135 63.0689 63.0894 62.6794 63.0773 62.2802C63.0451 61.186 63.2252 61.559 63.2906 61.3291C63.3923 60.9699 63.0481 53.7946 63.1719 53.1312L63.4345 53.072C63.4406 52.9605 63.4436 52.838 63.4436 52.7334C63.4416 52.1897 63.2624 52.6673 63.1517 52.3824C63.1075 52.2681 63.1769 52.2613 63.1085 52.052C62.4654 52.0163 62.4342 52.2847 62.5006 50.8229C62.558 50.7582 62.556 50.772 62.6174 50.7128L62.7391 50.5545C62.6305 50.3632 62.5329 50.2916 62.4201 50.1443C62.2933 49.9792 62.2159 49.8429 62.1011 49.6791C61.5446 48.8877 60.97 47.2759 60.7204 46.1885C60.7929 46.1114 60.81 46.1376 60.8955 46.0935L60.8714 44.9332C60.813 45.0805 60.8412 45.2773 60.8231 45.459C60.6993 45.5058 60.5936 45.5141 60.4779 45.4439L60.4678 43.6256C60.4789 43.3366 60.5453 43.4054 60.6309 43.1976C60.6027 43.0792 60.4024 42.7667 60.2585 42.4226C60.1488 42.1597 60.0351 41.8721 59.9315 41.5899C59.4062 40.1571 58.9483 38.3305 58.8044 36.7243C58.7098 35.6658 58.8567 36.0925 58.9614 35.6823L58.6967 35.5061C58.6947 35.0093 58.6242 34.7987 58.8647 34.5124L58.7943 34.4119C58.7581 34.3651 58.7551 34.3747 58.7219 34.3211C58.6625 34.2247 58.7128 34.3266 58.6715 34.2054C58.6675 34.1958 58.6645 34.182 58.6615 34.1724L58.6172 34.0389C58.5447 34.3747 58.6655 34.1407 58.424 34.4876C58.4199 34.4931 58.4119 34.5041 58.4069 34.5137L58.4049 34.5179ZM48.2529 88.896C47.6179 88.9276 46.996 88.9566 46.3882 88.9827C46.4999 87.4576 46.2181 86.9415 47.1117 85.8004C48.2449 85.8665 48.2761 87.4508 48.2519 88.8974L48.2529 88.896ZM44.8253 89.0433C44.0263 89.0722 43.2554 89.0969 42.5158 89.1176C42.4947 87.3971 42.398 85.0806 43.5614 84.9168C44.9149 84.7254 44.8465 87.3021 44.8253 89.0433ZM40.7034 89.163L40.64 89.1644C39.7121 89.185 38.7843 89.2002 37.8564 89.2139C37.8615 87.0887 37.6109 84.5685 39.1778 84.4171C39.9285 84.3442 40.483 85.1012 40.6359 86.0207C40.7507 86.7075 40.7164 88.1582 40.7034 89.163ZM36.355 89.2318C35.247 89.2428 34.14 89.2483 33.0341 89.2497C32.9918 86.9786 32.9022 84.6029 34.6422 84.5369C36.5542 84.4639 36.4073 87.2691 36.355 89.2318ZM31.2528 89.2497C30.326 89.247 29.4002 89.2415 28.4753 89.2332C28.4291 87.192 28.2258 84.519 29.8601 84.5355C31.4803 84.552 31.3062 87.1589 31.2528 89.2497ZM26.99 89.2181C26.2383 89.2098 25.4875 89.1988 24.7368 89.1864C24.6905 87.4673 24.4862 84.9636 25.8649 84.9677C27.2154 84.9718 27.0403 87.481 26.99 89.2181ZM23.1991 89.1589C22.6235 89.1479 22.0489 89.1355 21.4753 89.1231C21.4561 87.971 21.3706 86.4294 21.6785 85.6903C22.1445 85.0998 22.9033 85.1356 23.0914 86.2023C23.337 87.5994 23.0009 88.6111 23.1991 89.1589ZM20.0664 89.0901L19.847 89.0846C19.6729 89.0804 19.2975 89.0625 18.7712 89.0378C18.7642 87.8582 18.6464 86.0303 19.4143 85.6573C20.2677 85.6972 19.7524 88.3027 20.0664 89.0901ZM17.5344 88.9758L16.5764 88.9276C16.5774 87.8017 16.4717 86.4996 17.0927 86.1294C17.622 86.5575 17.4791 87.4962 17.5344 88.9758ZM85.1553 83.5899C81.3846 84.6071 77.5514 85.4384 73.7575 86.1184C73.5885 85.8197 73.6066 86.1968 74.3543 83.8982C74.9903 81.9409 75.7602 80.4627 77.2566 79.473C79.7573 77.8186 82.3124 78.7986 84.0665 81.261C84.5062 81.879 84.8454 82.7186 85.1563 83.5885L85.1553 83.5899ZM77.5444 60.9974L81.9874 61.007L81.4158 53.3486C81.0525 48.0866 80.808 42.6635 80.662 37.3753C80.6017 35.1896 80.2957 31.169 80.8492 29.4279L78.7047 29.4072C79.1052 30.8635 79.0267 31.3576 78.9955 33.085C78.9221 37.1399 78.7882 41.3188 78.5819 45.3503L77.8473 57.1283C77.7507 58.3932 77.5847 59.76 77.5444 60.9974ZM77.6762 73.5145L81.8515 73.5407L80.9398 65.9869L78.599 65.9663L77.6762 73.5145ZM74.4237 75.6934L85.1493 75.7127L85.3093 75.0878L74.305 75.0616L74.4248 75.692L74.4237 75.6934ZM76.9195 62.3132L82.5851 62.3353L82.6194 61.5025H76.9195V62.3132ZM79.6054 25.4666C79.0217 26.1575 78.7872 26.4466 78.8245 27.9207L80.7325 27.951C80.7637 26.4617 80.5342 26.1589 79.9506 25.4666C79.9405 25.044 79.9425 24.6201 79.9445 24.1975L79.9355 23.3221C79.864 22.945 79.9797 23.2354 79.8127 23.0096C79.538 23.1404 79.6768 22.7729 79.6024 23.4061L79.6044 25.4679L79.6054 25.4666ZM78.4873 28.9282L81.0485 28.9379L81.0656 28.4382C80.6952 28.3033 78.9191 28.3433 78.4753 28.4038L78.4873 28.9282ZM100.18 22.8293C100.122 24.905 99.9535 24.832 100.631 25.3743C100.884 25.578 100.63 25.4046 100.935 25.5808C101.463 24.0723 100.878 23.8052 100.873 21.9347L99.1666 21.0235C99.3608 21.8741 99.6919 22.3682 100.18 22.8293ZM58.2489 52.4526C56.6367 52.6976 55.2842 54.7361 55.5076 57.2288C55.7038 59.4186 57.162 61.2658 58.9996 60.9657C60.6047 60.7028 61.9633 58.6864 61.7318 56.1675C61.5305 53.979 60.0874 52.1718 58.2489 52.4526ZM58.269 57.025C58.581 57.204 58.5578 57.0622 58.6977 56.992C58.8557 56.9122 60.2505 56.9177 60.4366 56.82C60.3753 56.7869 59.6809 56.725 59.544 56.7071L58.7007 56.575C58.4562 56.4291 58.6383 53.6446 58.5105 53.222L58.4018 55.1696C58.3857 55.4958 58.3797 56.3148 58.2861 56.5695C58.2177 56.7566 58.2358 56.8227 58.269 57.025ZM16.6257 83.9381L17.5163 83.7165C17.5837 82.6003 17.6975 80.4723 17.0906 79.8708C16.6539 80.1172 16.6358 80.0387 16.6177 81.528C16.6086 82.3277 16.5714 83.1439 16.6257 83.9381ZM18.7672 83.382L19.8792 83.2141C19.9024 83.1082 20.2737 78.7655 19.4193 78.7697C18.5368 78.7738 18.7873 82.3139 18.7672 83.382ZM18.8024 76.3995L20.0402 75.8806C20.0201 74.6831 20.3653 71.4045 19.3096 71.5462C18.4864 71.6564 18.8195 74.3679 18.8024 76.3995ZM21.5216 75.2075C22.1143 75.2557 22.6557 74.9254 23.2172 74.7437C23.2464 73.8421 23.1609 72.924 23.1407 72.0032C23.1176 70.9255 23.1468 70.1244 22.2481 70.1698C21.1321 70.2263 21.5024 72.3872 21.5216 75.2075ZM21.5276 82.8797L23.2082 82.6911C23.2756 81.7125 23.1619 80.7407 23.1438 79.7717C23.1246 78.7449 23.1921 77.725 22.3759 77.652C21.1271 77.5392 21.4743 79.9355 21.5276 82.8797ZM46.4153 82.7214L48.2096 82.9182C48.3395 81.3257 48.5186 77.491 47.3844 77.3644C46.1567 77.2281 46.3479 81.228 46.4153 82.7214ZM24.7489 74.2371L26.9588 73.71C27.0534 71.944 27.4157 68.3144 25.7613 68.547C24.2679 68.7576 24.7187 72.2854 24.7489 74.2371ZM42.547 82.0111L44.78 82.0222C44.9149 80.2163 45.0679 76.4766 43.667 76.4752C42.2632 76.4738 42.4172 80.1874 42.547 82.0111ZM24.7388 82.3979L26.9789 82.23C26.9759 80.2301 27.4761 76.6638 25.8569 76.617C24.1853 76.5688 24.7509 80.4737 24.7388 82.3979ZM28.4733 73.4484L31.2025 73.1635C31.4058 71.0507 31.5235 67.9332 29.8601 67.9153C28.0094 67.8946 28.4884 71.231 28.4733 73.4484ZM28.4733 82.0635L31.2398 82.1102C31.2257 79.8708 31.7993 75.7787 29.8601 75.7581C27.9088 75.7374 28.4894 79.886 28.4733 82.0635ZM33.0481 73.0479L36.3439 72.763C36.3308 70.2868 36.7163 67.1445 34.6351 67.1982C32.6507 67.2491 32.9505 70.7562 33.0481 73.0479ZM37.8605 82.1268L40.6953 82.1185C40.6822 79.8116 41.1713 75.4773 39.2764 75.4456C37.3472 75.4126 37.8605 79.8419 37.8605 82.1268ZM33.024 82.1213L36.3439 82.1226C36.3308 79.7414 36.8914 75.5489 34.766 75.4539C32.4625 75.3507 33.0401 79.5832 33.024 82.1213Z" fill="#001E74"/>
<path id="Vector_2" fill-rule="evenodd" clip-rule="evenodd" d="M9.27344 92.4687C11.4178 92.23 27.0019 96.3418 30.5188 97.1661C37.6836 98.8481 44.9118 100.352 52.2368 101.725C72.9401 105.602 112.014 111.328 132.39 100.62C136.832 98.2847 140.577 95.673 143.286 91.5625C148.826 83.1543 147.38 72.838 143.96 63.7054C142.28 59.2189 141.78 58.7138 140.316 55.3999C139.906 54.4729 140.01 54.9627 139.944 54.1606L139.819 55.2195C139.858 55.5026 140.034 56.0729 140.106 56.3449C141.712 62.369 142.377 68.7678 140.627 74.7739C132.394 103.046 71.4275 98.7523 49.8405 96.9025C42.8793 96.3058 35.9413 95.53 29.0829 94.6627C27.5824 94.4726 11.1961 91.9039 9.82465 92.2231C9.75512 92.2397 9.59792 92.4285 9.54854 92.3383C9.49816 92.2467 9.35809 92.4104 9.27445 92.4687H9.27344Z" fill="#F58634"/>
</g>
</g>
</svg>
