<svg width="34" height="34" viewBox="0 0 34 34" fill="none" xmlns="http://www.w3.org/2000/svg">
<g id="BellRinging">
<path id="Vector" d="M29.749 9.44352C29.4989 9.57303 29.2076 9.59794 28.9391 9.51277C28.6707 9.4276 28.447 9.23931 28.3173 8.9893C27.3031 6.98581 25.7681 5.29246 23.8734 4.08719C23.7553 4.01272 23.6531 3.91571 23.5725 3.80172C23.4919 3.68773 23.4345 3.55899 23.4037 3.42283C23.3729 3.28668 23.3692 3.14578 23.3928 3.0082C23.4164 2.87061 23.4669 2.73902 23.5413 2.62094C23.6158 2.50286 23.7128 2.40061 23.8268 2.32002C23.9408 2.23943 24.0696 2.18209 24.2057 2.15125C24.3419 2.12042 24.4828 2.11671 24.6203 2.14033C24.7579 2.16395 24.8895 2.21444 25.0076 2.28891C27.2157 3.70275 29.0087 5.6777 30.2032 8.0118C30.3327 8.26191 30.3577 8.55321 30.2725 8.82168C30.1873 9.09015 29.999 9.31382 29.749 9.44352ZM4.74174 9.56305C4.9364 9.56297 5.12729 9.50942 5.29358 9.40824C5.45987 9.30705 5.59517 9.16214 5.68471 8.9893C6.69887 6.98581 8.23394 5.29246 10.1286 4.08719C10.3671 3.93678 10.536 3.69781 10.5983 3.42283C10.6606 3.14786 10.6111 2.85941 10.4606 2.62094C10.3102 2.38247 10.0713 2.21352 9.79629 2.15125C9.52131 2.08899 9.23287 2.1385 8.9944 2.28891C6.78626 3.70275 4.99326 5.6777 3.79877 8.0118C3.71489 8.17372 3.67409 8.35451 3.68031 8.53677C3.68652 8.71903 3.73955 8.89662 3.83427 9.05245C3.929 9.20828 4.06224 9.33711 4.22117 9.42653C4.3801 9.51596 4.55938 9.56297 4.74174 9.56305ZM29.4581 23.3676C29.6464 23.6904 29.7462 24.0571 29.7475 24.4308C29.7487 24.8044 29.6515 25.1718 29.4655 25.4959C29.2794 25.82 29.0113 26.0893 28.688 26.2766C28.3647 26.464 27.9977 26.5628 27.624 26.563H22.2053C21.9614 27.764 21.3099 28.8437 20.361 29.6192C19.4122 30.3947 18.2244 30.8184 16.999 30.8184C15.7736 30.8184 14.5858 30.3947 13.637 29.6192C12.6882 28.8437 12.0366 27.764 11.7928 26.563H6.37401C6.00057 26.5623 5.63392 26.4632 5.31099 26.2756C4.98806 26.0881 4.72025 25.8187 4.53455 25.4947C4.34885 25.1707 4.25182 24.8035 4.25322 24.4301C4.25462 24.0567 4.3544 23.6902 4.54252 23.3676C5.73916 21.3023 6.37401 18.3659 6.37401 14.8756C6.37401 12.0576 7.49342 9.35511 9.486 7.36254C11.4786 5.36997 14.1811 4.25055 16.999 4.25055C19.8169 4.25055 22.5194 5.36997 24.512 7.36254C26.5046 9.35511 27.624 12.0576 27.624 14.8756C27.624 18.3645 28.2589 21.301 29.4581 23.3676ZM20.0032 26.563H13.9948C14.2149 27.1838 14.6219 27.7212 15.1599 28.1012C15.6979 28.4812 16.3404 28.6853 16.999 28.6853C17.6577 28.6853 18.3001 28.4812 18.8381 28.1012C19.3761 27.7212 19.7831 27.1838 20.0032 26.563ZM27.624 24.438C26.2109 22.0116 25.499 18.7948 25.499 14.8756C25.499 12.6212 24.6035 10.4592 23.0094 8.86514C21.4154 7.27108 19.2533 6.37555 16.999 6.37555C14.7447 6.37555 12.5827 7.27108 10.9886 8.86514C9.39454 10.4592 8.49901 12.6212 8.49901 14.8756C8.49901 18.7962 7.78448 22.0129 6.37401 24.438H27.624Z" fill="black"/>
</g>
</svg>
